<?xml version="1.0" standalone="no"?>
<!DOCTYPE svg PUBLIC "-//W3C//DTD SVG 20010904//EN"
 "http://www.w3.org/TR/2001/REC-SVG-20010904/DTD/svg10.dtd">
<svg version="1.0" xmlns="http://www.w3.org/2000/svg"
 width="512.000000pt" height="512.000000pt" viewBox="0 0 512.000000 512.000000"
 preserveAspectRatio="xMidYMid meet">
<metadata>
Created by potrace 1.11, written by Peter Selinger 2001-2013
</metadata>
<g transform="translate(0.000000,512.000000) scale(0.100000,-0.100000)"
fill="#000000" stroke="none">
<path d="M1660 4668 c-650 -61 -1226 -426 -1494 -948 -305 -592 -182 -1266
318 -1748 l104 -100 -74 -328 c-40 -181 -76 -336 -78 -345 -5 -21 -39 -35 417
174 l358 164 127 -33 c194 -49 360 -67 588 -62 106 2 196 7 200 11 4 3 -7 44
-24 89 -91 244 -101 440 -36 664 126 437 564 786 1110 886 99 18 156 21 336
21 l218 0 -5 36 c-39 294 -93 463 -213 661 -359 592 -1088 930 -1852 858z
m391 -188 c449 -45 828 -222 1114 -521 105 -111 178 -215 245 -354 39 -81 100
-255 100 -286 0 -4 -48 -10 -107 -13 -372 -24 -676 -122 -953 -307 -120 -80
-299 -253 -380 -367 -109 -153 -191 -350 -220 -525 -15 -92 -12 -294 5 -384 8
-43 15 -81 15 -85 0 -13 -132 -9 -257 7 -128 17 -253 44 -348 75 l-61 20 -239
-110 c-132 -60 -246 -110 -253 -110 -8 0 -11 7 -8 18 4 14 36 153 84 369 l10
41 -86 69 c-255 204 -425 473 -498 788 -28 120 -26 395 4 523 172 737 969
1237 1833 1152z"/>
<path d="M1123 3850 c-106 -53 -163 -138 -171 -255 -14 -222 203 -383 411
-305 117 44 187 141 195 271 4 67 1 83 -23 136 -52 116 -141 176 -270 181 -73
3 -85 1 -142 -28z m197 -166 c54 -33 76 -107 47 -164 -17 -34 -74 -70 -112
-70 -38 0 -95 36 -112 70 -27 54 -6 131 45 162 35 22 96 23 132 2z"/>
<path d="M2392 3863 c-61 -21 -145 -102 -173 -165 -30 -71 -32 -174 -2 -239
66 -146 234 -223 381 -175 65 22 145 93 180 160 36 71 38 188 3 258 -31 65
-92 125 -154 154 -62 28 -166 32 -235 7z m199 -201 c94 -105 -18 -257 -145
-197 -44 21 -66 59 -66 115 0 78 52 123 134 116 40 -3 55 -9 77 -34z"/>
<path d="M3330 3084 c-345 -52 -664 -208 -890 -434 -158 -158 -264 -337 -317
-537 -22 -85 -26 -119 -27 -253 0 -132 3 -168 23 -245 56 -213 155 -381 325
-551 311 -310 748 -470 1231 -451 164 6 216 14 376 54 l107 26 281 -123 c155
-67 284 -120 287 -117 3 3 -20 109 -50 236 l-55 230 137 138 c151 152 219 250
279 398 64 159 76 223 76 400 0 141 -3 172 -26 258 -53 200 -159 379 -317 537
-232 231 -549 384 -901 435 -133 19 -409 18 -539 -1z m510 -185 c547 -74 986
-433 1076 -878 20 -101 15 -282 -10 -375 -60 -220 -194 -409 -402 -567 -52
-40 -94 -76 -94 -81 0 -5 11 -55 26 -110 14 -56 21 -104 17 -109 -4 -4 -71 20
-147 53 l-139 60 -111 -30 c-178 -50 -235 -57 -451 -57 -168 0 -218 4 -312 23
-757 153 -1187 770 -948 1360 109 269 370 505 690 625 250 94 529 124 805 86z"/>
<path d="M2945 2476 c-93 -43 -165 -153 -165 -251 0 -101 76 -213 172 -255
104 -45 208 -26 293 52 116 106 126 266 23 383 -82 93 -214 122 -323 71z m165
-171 c38 -20 57 -74 40 -116 -17 -39 -46 -59 -88 -59 -47 0 -71 16 -88 57 -37
87 50 163 136 118z"/>
<path d="M4020 2479 c-150 -67 -211 -234 -139 -377 50 -100 136 -154 244 -154
243 -1 367 280 206 464 -73 84 -210 113 -311 67z m169 -185 c26 -21 31 -33 31
-67 -1 -45 -13 -67 -47 -85 -39 -21 -82 -14 -115 18 -27 28 -30 36 -25 73 11
82 93 114 156 61z"/>
</g>
</svg>
